<svg xmlns="http://www.w3.org/2000/svg" fill="#000000" class="bi bi-filetype-html" viewBox="0 0 16 16" id="Filetype-Html--Streamline-Bootstrap" height="16" width="16">
  <desc>
    Filetype Html Streamline Icon: https://streamlinehq.com
  </desc>
  <path fill-rule="evenodd" d="M14 4.5V11h-1V4.5h-2A1.5 1.5 0 0 1 9.5 3V1H4a1 1 0 0 0 -1 1v9H2V2a2 2 0 0 1 2 -2h5.5zm-9.736 7.35v3.999h-0.791v-1.714H1.79v1.714H1V11.85h0.791v1.626h1.682V11.85h0.79Zm2.251 0.662v3.337h-0.794v-3.337H4.588v-0.662h3.064v0.662zm2.176 3.337v-2.66h0.038l0.952 2.159h0.516l0.946 -2.16h0.038v2.661h0.715V11.85h-0.8l-1.14 2.596H9.93L8.79 11.85h-0.805v3.999zm4.71 -0.674h1.696v0.674H12.61V11.85h0.79v3.325Z" stroke-width="1"></path>
</svg>